<svg viewBox="0 0 439 439" fill="none" xmlns="http://www.w3.org/2000/svg">
<rect width="439" height="439" fill="#D9D9D9"/>
<path d="M110.229 153C82.905 153 64.9905 168.019 64.9905 189.915C64.9905 216.877 85.2574 222.848 109.686 229.001C129.41 233.887 138.82 236.782 138.82 249.811C138.82 261.935 129.41 269.354 113.305 269.354C95.3909 269.354 85.2574 260.487 85.2574 242.03H63C63 271.525 82.0002 287.268 113.124 287.268C142.077 287.268 161.258 271.706 161.258 247.82C161.258 220.677 140.991 214.344 116.743 208.372C96.1147 203.305 87.2479 199.686 87.2479 187.924C87.2479 177.429 95.9337 170.734 109.867 170.734C126.515 170.734 135.744 179.057 135.744 195.343H157.639C157.639 167.657 141.534 153 110.229 153Z" fill="#242B2D"/>
<path d="M329.824 155.714H308.472L297.795 205.296C293.815 224.477 289.833 244.201 286.576 263.382H286.214C282.233 244.201 277.891 224.477 273.186 205.115L261.243 155.714H232.652L220.709 205.115C216.004 224.477 211.661 244.201 207.68 263.382H207.318C204.061 244.201 200.08 224.477 195.918 205.296L185.423 155.714H164.07L192.48 284.554H221.614L234.461 230.991C238.985 212.172 243.147 193.353 246.766 174.353H247.128C250.747 193.353 254.909 212.172 259.433 230.991L272.281 284.554H301.415L329.824 155.714Z" fill="#242B2D"/>
<path d="M349.421 228.523C332.678 228.523 321.465 240.048 321.465 257.258C321.465 274.468 332.678 285.993 349.421 285.993C366.241 285.993 377.377 274.468 377.377 257.258C377.377 240.048 366.241 228.523 349.421 228.523ZM349.421 232.495C363.905 232.495 373.561 242.385 373.561 257.258C373.561 272.132 363.905 282.022 349.421 282.022C334.937 282.022 325.358 272.132 325.358 257.258C325.358 242.385 334.937 232.495 349.421 232.495ZM349.577 238.803C339.687 238.803 333.613 245.811 333.613 257.336C333.613 268.705 339.609 275.714 349.421 275.714C358.065 275.714 363.827 270.574 364.528 262.32H357.831C357.286 266.992 354.171 270.107 349.421 270.107C343.814 270.107 340.31 265.201 340.31 257.336C340.31 249.315 343.814 244.409 349.577 244.409C354.327 244.409 357.286 247.446 357.675 251.963H364.294C363.905 244.176 358.454 238.803 349.577 238.803Z" fill="#242B2D"/>
</svg>
